<?xml version="1.0" encoding="utf-8"?>
<!-- Generator: Adobe Illustrator 21.1.0, SVG Export Plug-In . SVG Version: 6.00 Build 0)  -->
<svg version="1.1" id="Layer_1" xmlns="http://www.w3.org/2000/svg" xmlns:xlink="http://www.w3.org/1999/xlink" x="0px" y="0px"
	 viewBox="0 0 450.8 154.5" style="enable-background:new 0 0 450.8 154.5;" xml:space="preserve">
<g>
	<path d="M30.4,63.6c0.2,0,0.4,1,0.1,1.2c-1.2,1.4-2.2,2.6-2.9,4.2c-2,5.1-3.7,10.2-5.4,15.6c5.1-7.7,17.1-25.2,23-25.2
		c2.7,0,3.9,3.7,3.9,5.9c0,2.7-1,6.2-2.6,9.7c5.2-2.2,9.7-4,11.7-4.2c0.5,0,0.5,0.9,0.2,0.9c-2.5,0.5-7.6,2.6-12.9,5.4
		c-4,7.6-11,14.9-17.5,14.9c-1.2,0-2.5-0.2-3.6-0.8c-0.4-0.4-0.1-1.5,0-1.7c1.7-3.4,9.1-8,16.7-11.9c2-4.1,3.4-8.6,3.5-12.5
		c0-1.5-0.4-2.1-1.2-2.1c-4.4,0-19,20.1-22.5,25.4c-6.2,19.5-11.2,40.1-16.2,58.5c-0.1,0.5-3.2-0.1-4.7-1.9
		c2.9-11.4,12.1-44.5,23.7-74.7C24.7,67.6,26.7,64.8,30.4,63.6z M27,90.3c4.7,0,9.6-4.5,13-10.4c-6.6,3.7-12.6,7.7-13.6,10
		C26.4,90.1,26.4,90.3,27,90.3z"/>
	<path d="M55.7,91.3c-0.2-2.9-0.4-5.6-0.4-8c0-3.5,0.2-4.2,0.5-7.1C58.8,45,88.6,0,100.5,0c3,0,4.4,3.2,4.4,6.1
		c0,21.2-32.7,51.5-44.5,64c-0.5,2.6-1.1,6.5-1.4,13.6c5.6-9.7,14.1-22.4,21.1-22.4c1.5,0,2.1,1.1,2.1,2.9c0,5.7-6.4,21.7-5.7,23.4
		c0.5,1.5,11.5-11.5,16.7-18c0.2-0.2,0.7,0.4,0.6,0.6c-3.5,5.4-18.2,23.6-21.4,23.6c-0.5,0-0.7-0.4-0.7-1.1c0-4.1,7-22.1,7-27
		c0-0.5-0.1-1.6-1.1-1.6c-5.5,0-19.5,24.2-21.2,27.4C56.2,91.5,55.8,91.5,55.7,91.3z M60.7,68.1c15.9-17.7,39.9-42,39.9-60.8
		c0-2.9-1.4-4.1-2.9-4.1C89.3,3.1,65,45,60.7,68.1z"/>
	<path d="M96.5,60.1c0.9,1.1,3,2.1,3,3.6c0,0.4-0.1,0.8-0.5,1.2c-3.6,4.9-6.5,15.6-6.5,19.5c0,0.9,0.1,1.4,0.8,1.4
		c4.6,0,16.6-12.1,19.9-16.2c0.1-0.2,0.9,0.2,0.6,0.6c-2.9,4.5-17.9,20.5-23.7,20.5c-1.4,0-1.4-1.2-1.4-2c0-2.6,1-7.7,3.4-15
		C93.5,69.3,96.2,61.2,96.5,60.1z M102.9,47.2c1.2,0,2,0.9,2,2.1c0,1.4-1.5,3.5-3.4,3.5c-1.2,0-1.9-1.2-1.9-2.5
		C99.7,48.7,101.2,47.2,102.9,47.2z"/>
	<path d="M159.5,70.1c-6.6,10-21.1,20.5-26.9,20.5c-3,0-4.6-4.1-4.6-10.2v-1.1c-4.7,4.9-12.4,11.2-17.7,11.2c-2.9,0-4.9-2.1-4.9-5.2
		c0-8.9,13-25.9,27.2-25c9.1-25,29.4-57.5,40.7-57.5c2,0,2.6,1.6,2.6,3.7c0,19.1-31.5,56-43.4,67.7c-0.2,1.7-0.4,3.4-0.4,4.9
		c0,4.7,1,7.5,3.1,7.5c5,0,17.2-9,23.5-17.1C159.2,69.2,159.7,69.8,159.5,70.1z M132.3,61.3c-14.1,1.9-22.1,17.5-22.1,23
		c0,1.6,0.9,2.2,2.7,2.2c4.6,0,11.1-5.2,15.2-9.4C128.7,72.8,130.2,67.3,132.3,61.3z M132.9,72.3c11.7-11.1,38.4-47.2,38.4-63
		c0-2-0.6-3.1-1.7-3.1C163.3,6.2,137.4,47,132.9,72.3z"/>
	<path d="M187.3,70.2c-3,4.7-17.9,20.9-27.7,20.9c-5,0-6.1-4.4-6.1-8.2c0-8.9,8.6-24.7,18-24.7c2.2,0,5.5,1,5.5,3
		c0,3.4-8.9,8.1-17.5,11.6c-1.2,3-2,6.1-2,8.6c0,3,0.8,6.4,3.6,6.4c8.6,0,22.6-13.9,25.6-18.1C186.8,69.3,187.5,69.8,187.3,70.2z
		 M170.4,59.7c-3.1,0-7.4,5.4-10.1,11.2c7.9-3.2,12.5-6.6,12.5-9.1C172.8,60.6,171.4,59.7,170.4,59.7z"/>
	<path d="M184.4,92.2c-0.5-2-0.7-4.4-0.7-7c0-7.4,0.5-18.6,8.7-21.6c0.2,0,0.4,1,0.1,1.2c-2,2.2-3.1,3.7-3.7,8
		c-0.5,2.9-1,6.4-1.2,10.6c4.7-10.6,13.4-24.2,20.5-24.2c1.9,0,2.9,1.2,2.9,3.4c0,6.1-11.9,22.7-10.6,26.1
		c0.5,1.5,16-12.6,21.4-19.1c0.2-0.2,0.7,0.4,0.6,0.6c-3.7,5.6-22.4,24.4-25.1,24.4c-0.6,0-0.8-0.5-0.8-1.2c0-8.2,11-24.5,11-29.6
		c0-0.5-0.1-1.7-1.4-1.7c-6.9,0-19.4,25-21,30.4C184.9,92.3,184.5,92.3,184.4,92.2z"/>
	<g>
		<path d="M250.5,52.8c1.9,0,3.4-2.1,3.4-3.5c0-1.2-0.8-2.1-2-2.1c-1.7,0-3.2,1.5-3.2,3.1C248.6,51.6,249.3,52.8,250.5,52.8z"/>
		<path d="M258.4,82.4c0-0.3,0-0.7,0-1c0-2.5,0.8-5.6,2-8.6c8.6-3.5,17.5-8.2,17.5-11.6c0-2-3.2-3-5.5-3c-9.4,0-18,15.9-18,24.7
			c0,0.9,0.1,1.7,0.2,2.6c-6.5,5.1-13.2,10.1-19.6,15c4.9-12.5,9.4-25.1,13.4-35.5c0.8-1.6,0-2.5-0.4-2.9c-0.9-0.6-2.1-1.5-2.5-2
			c-0.2,1.1-2.4,7.6-3.9,12c-2.4,7-6.5,19.1-11.4,32c-18.4,14.5-33.5,28.7-33.5,44.7c0,3.1,1.1,5.7,4.2,5.7c10.5,0,22.5-25,33-51.5
			c6.7-5.3,13.9-10.6,21-16c0.8,2.3,2.4,4,5.5,4c9.9,0,24.7-16.1,27.7-20.9c0.2-0.4-0.5-0.9-0.6-0.6c-3,4.2-17,18.1-25.6,18.1
			c-2,0-2.9-1.6-3.3-3.5 M271.4,59.7c1,0,2.4,0.9,2.4,2.1c0,2.5-4.6,5.9-12.5,9.1C264,65.1,268.2,59.7,271.4,59.7z M203.9,151.7
			c-1.6,0-2.9-1.4-2.9-4.2c0-14.5,12.4-27.6,28.2-40.6C220.9,128.9,210.8,151.7,203.9,151.7z"/>
	</g>
	<path d="M323.6,69.7c1.1,2.4,3.4,3.6,6.2,3.6c2.2,0,4.7-0.9,7-2.6c0.2-0.2,0.9,0.4,0.6,0.6c-4,3-7.1,4.2-9.6,4.2
		c-3,0-4.9-1.2-5.9-3.5c-6.5,9.5-16.5,19.7-17.5,21.6c-0.1,0-0.5,0-0.6-0.1c-1.1-3-1.2-7.5-1.2-12.1c0-1.9,0-4.5,0.1-7.4
		c-6.2,8.5-14,17.6-15.1,19.6c-0.1,0-0.5,0-0.6-0.1c-1.1-3-1.6-7.4-1.6-12c0-6,1-12.5,3.2-16.5c1.1-2,3-3.7,5.7-4.7
		c0.2,0,0.4,1,0.1,1.2c-1.1,1.4-2.1,2.6-2.7,3.9c-2.1,3.7-2.9,8.7-2.9,13c0,3.7,0.5,7.2,1.2,8.6c4.1-4.4,9-10.2,12.9-15.6
		c0.5-3.7,1.2-7.1,2.7-8.6c0.6,1.6,3.5,1.1,2.4,3.6c-1.7,3.6-2.4,8-2.4,11.9c0,4,0.5,7.2,1.2,8.9c4.4-4.5,10.4-11,14.5-17
		c-0.5-3.4,0.6-8.1,3.1-12.6c0.7-0.6,1.2-0.9,2.2-1.1C329.1,59,327.2,64.1,323.6,69.7z M323.1,66.8v0.9c2.2-3.6,3.6-7,2.9-9.1
		C324.8,59.7,323.1,64.3,323.1,66.8z"/>
	<path d="M365.8,70.2c-3,4.7-17.9,20.9-27.7,20.9c-5,0-6.1-4.4-6.1-8.2c0-8.9,8.6-24.7,18-24.7c2.2,0,5.5,1,5.5,3
		c0,3.4-8.9,8.1-17.5,11.6c-1.2,3-2,6.1-2,8.6c0,3,0.8,6.4,3.6,6.4c8.6,0,22.6-13.9,25.6-18.1C365.3,69.3,366.1,69.8,365.8,70.2z
		 M348.9,59.7c-3.1,0-7.4,5.4-10.1,11.2c7.9-3.2,12.5-6.6,12.5-9.1C351.3,60.6,349.9,59.7,348.9,59.7z"/>
	<path d="M400.8,63.6c-6.7,9-25.3,29.2-32.8,29.2c-3.7,0-6.2-3.1-6.2-12.5c0-21.4,30.1-76.8,45-76.8c3,0,4.4,3.2,4.4,6.1
		c0,23.9-37.6,55.1-44,60.6c-0.8,3.4-1.1,6.4-1.1,8.9c0,7.4,1.9,9.9,4.7,9.9c6.2,0,23.3-18.8,29.4-26
		C400.4,62.7,400.9,63.4,400.8,63.6z M367.7,68.2c7.9-7,39.2-36.2,39.2-57.5c0-2.9-1.4-4.1-2.9-4.1c-1,0-2,0.5-3,1.2
		C388.4,18.5,372.7,48.2,367.7,68.2z"/>
	<path d="M399.8,63.6c-0.1-0.5,0.1-1.5,1.1-3.4c1-1.1,3.5-2.1,5.9-2.6l0.1,1.2c-1.9,1.7-2.5,2.7-2.5,3.4c0,1.5,3.7,1,3.7,4.5
		c-0.4,6.5-9.6,9.6-9.6,16.2c0,2.5,1.1,4.9,4.5,4.9c8.9,0,16.2-10.5,23-18.2c0.2-0.2,0.8,0.4,0.6,0.6c-4.2,5.6-16.5,21.9-24.7,21.9
		c-4,0-6-2.9-6-6.5c0-7.1,8-10.4,8-19.9c0-1.9-2-1.4-3.2-1.5"/>
	<path d="M433.3,60.3c0.2,0,0.4,1,0.1,1.2c-1.1,1.4-2.1,2.6-2.7,3.9c-4,7.1-6.2,16.2-6.2,20.4c0,1.5,0.4,2.4,1.2,2.4
		c4.5,0,21.9-24.6,23.2-26.1c0.2,0.5,0.4,0.6,0.8,1c0.4,0.4,1.6,0.9,0.9,2.6c-1.5,3.4-3.4,7.4-4.6,10.6
		c-13.6,33.5-25.1,66.2-37.9,66.2c-2.6,0-4.6-1.9-5.2-3.5c0-0.2,0.4-0.4,0.6-0.4c1.2,2.1,3.7,1.9,6,0.4c13.2-8.6,25.9-42.5,34.7-67
		l0.5-1.6c0-0.1-0.4-0.2-0.5-0.1c-3.1,4.2-14.7,21.4-20.2,21.4c-2.7,0-3.9-3.7-3.9-5.9c0-4.1,3.5-13.6,7.5-20.7
		C428.7,63.1,430.5,61.3,433.3,60.3z"/>
</g>
</svg>
