<svg id="Layer_1" data-name="Layer 1" xmlns="http://www.w3.org/2000/svg" viewBox="0 0 372 82.56"><defs><style>.cls-1{fill:#fff;}</style></defs><title>phiden_logo</title><path class="cls-1" d="M37.52,48.35c-3.1,3.91-8.19,7.82-13.29,5.54a7,7,0,0,1-3.76-3.76C18.7,54.4,10.36,75.58,7.7,81.71a1.78,1.78,0,0,1-2.36.66A1.77,1.77,0,0,1,4.75,80c0-.07,16-39.93,16.09-40,2.66-6.79,5.39-13.58,8.41-20.3a1.69,1.69,0,0,1,2.29-.59,1.78,1.78,0,0,1,.66,2.36c-.07.22-.22.44-.3.66a8.92,8.92,0,0,1,5.61-1.92c5,.3,7.23,5.09,7.16,9.6a32,32,0,0,1-2.14,9.37A36.91,36.91,0,0,1,37.52,48.35Zm-1-4.5a33.56,33.56,0,0,0,3.54-8.19,19.26,19.26,0,0,0,1.11-7.09,5.57,5.57,0,0,0-1.62-4,3.61,3.61,0,0,0-3.4-.81C31.84,25,28.74,29.9,27,33.81c-.07,0-.07,0-.07.07-.81,1.92-2.36,5.83-3.1,7.68-.66,2.21-1.33,4.87-.3,7.09a4,4,0,0,0,3.25,2.51c1.85.22,3.54-.81,4.95-1.85A22.59,22.59,0,0,0,36.56,43.85ZM51,41.63c-2.88,5.17-9.89,16.68-17,11.07a1.74,1.74,0,0,1,0-2.44,1.9,1.9,0,0,1,2.44,0c2,1.55,4.43-.74,5.83-2.14A36.34,36.34,0,0,0,48,39.86C49.13,37.94,52.08,39.71,51,41.63Z" transform="translate(-4.54)"/><path class="cls-1" d="M80.73,41.71a39.86,39.86,0,0,1-5.61,8,17.08,17.08,0,0,1-6.64,4.8,6,6,0,0,1-6.13-1.33c-1.62-1.62-1.77-4-1.33-6.13.59-3.17,2.29-6.05,3.62-9a24.29,24.29,0,0,0,2.51-7.82c.22-1.77.07-4.21-2-4.58-1.7-.22-3.47,1-4.72,2A33.43,33.43,0,0,0,52,39.12c0,.07,0,.15-.07.15C49.88,44.14,47.74,49,45.6,54a1.69,1.69,0,0,1-2.29.59,1.78,1.78,0,0,1-.66-2.36c.81-1.85,1.62-3.76,2.44-5.61,6.57-15.2,13.06-30.41,20.08-45.46.89-2,3.84-.22,3,1.77-1.85,3.91-3.62,7.82-5.39,11.81-1.48,3.47-3,6.94-4.58,10.41a5.14,5.14,0,0,1,.74-.59,9.61,9.61,0,0,1,5.83-2.29A5.74,5.74,0,0,1,70,25.47c1.18,2.51.74,5.39.07,7.9a47.55,47.55,0,0,1-3.54,8.78c-1.11,2.14-2.66,4.94-2.29,7.45.29,1.55,1.85,2,3.25,1.55,2.21-.59,4-2.51,5.54-4.21A38.9,38.9,0,0,0,77.85,40C78.89,38.09,81.84,39.79,80.73,41.71Z" transform="translate(-4.54)"/><path class="cls-1" d="M94.39,41.71a35.34,35.34,0,0,1-7.38,10c-2.36,2.07-5.68,3.76-8.71,1.92s-2.66-5.61-2-8.49c1-4,2.73-7.68,4.28-11.44,1.85-4.21,3.62-8.49,5.61-12.62,1-2,3.91-.29,3,1.7-1.92,4.13-3.76,8.27-5.54,12.47a94,94,0,0,0-3.76,9.89c-.44,1.55-1.4,5,.59,5.68s4.43-1.7,5.68-3a38,38,0,0,0,5.31-7.9C92.47,38,95.5,39.79,94.39,41.71ZM92,15.28a2.26,2.26,0,0,1-3.4-1.11,3.16,3.16,0,0,1,.89-3.1,2.36,2.36,0,0,1,1.77-.59A2,2,0,0,1,93.13,12,3.2,3.2,0,0,1,92,15.28Z" transform="translate(-4.54)"/><path class="cls-1" d="M113.21,42.22c-.66,1.92-3.54,10.26,1.4,8.64,2.07-.66,3.69-2.66,5-4.28a48.49,48.49,0,0,0,4.28-6.64c1-1.92,4-.15,3,1.77a51.46,51.46,0,0,1-5.54,8.19c-1.85,2.07-4.28,4.28-7.23,4.5a5.23,5.23,0,0,1-5.46-3.4c-.07-.44-.22-.81-.3-1.25-2.29,2.66-5.24,4.65-8.78,4.72a7.66,7.66,0,0,1-6.86-3.69,14.08,14.08,0,0,1-1.48-9,31.14,31.14,0,0,1,4.87-12c2.58-4.21,6.42-8.27,11.37-9.37,2.58-.59,5.54-.52,7.75,1.18a6.71,6.71,0,0,1,2.14,2.66C121,16.39,124.5,8.64,128.12.89c1-2,3.91-.3,3,1.7-2.44,5.24-4.8,10.48-7.23,15.72-2.07,4.5-4.13,9-6.13,13.51C116.16,35.21,114.54,38.68,113.21,42.22Zm-2.8-2.36c.07-.15.15-.22.15-.37,1.18-2.88,2.51-5.76,3.84-8.64a4.49,4.49,0,0,1,.37-.89,1,1,0,0,1,0-.66c.44-2.36-.59-5.31-3.25-5.76a9.14,9.14,0,0,0-5.9,1.18c-3.47,1.92-5.9,5.31-7.75,8.71a24.3,24.3,0,0,0-3.32,9.74c-.15,2.14,0,4.58,1.4,6.27a4.51,4.51,0,0,0,4.87,1.4C105.53,49.6,108.63,44.07,110.41,39.86Z" transform="translate(-4.54)"/><path class="cls-1" d="M151.21,41.41c-3.62,6.86-10.55,14.32-19.12,13.06a9.31,9.31,0,0,1-7.23-5.17c-1.48-3.1-1.4-6.72-.81-10a31.58,31.58,0,0,1,3.84-9.74,23.76,23.76,0,0,1,6.64-7.9,8.86,8.86,0,0,1,8.93-1c3.4,1.77,3.62,5.9,2.36,9.08a14.89,14.89,0,0,1-18,8.41,21.62,21.62,0,0,0-.74,4.8c-.07,2.21.3,4.8,2,6.42a7.28,7.28,0,0,0,6.2,1.77c6-1,10.33-6.5,13-11.44C149.29,37.72,152.24,39.49,151.21,41.41Zm-22.29-6.49a11.13,11.13,0,0,0,9.37-1.33c2.36-1.48,4.58-4.06,4.87-7,.22-2.36-1.62-3.62-3.91-3.25s-4.43,2.36-6,4.21A30.43,30.43,0,0,0,128.92,34.92Z" transform="translate(-4.54)"/><path class="cls-1" d="M181,41.71a43.14,43.14,0,0,1-5.61,8,16.8,16.8,0,0,1-6.72,4.8,6.06,6.06,0,0,1-6.13-1.33c-1.62-1.62-1.7-4-1.33-6.13.59-3.17,2.36-6.05,3.69-8.93a27.59,27.59,0,0,0,2.51-8c.22-1.77,0-4.06-2-4.43-1.7-.22-3.47,1-4.8,2A32.48,32.48,0,0,0,152.34,39c-2.21,4.95-4.35,10-6.5,15a1.76,1.76,0,0,1-2.36.59,1.83,1.83,0,0,1-.59-2.36c.59-1.33,1.11-2.66,1.7-4,3.91-9,7.82-18.08,12-27.09.89-2,3.84-.22,3,1.77-.3.66-.66,1.33-1,2.07.22-.15.37-.29.59-.44A9.44,9.44,0,0,1,165,22.22a5.65,5.65,0,0,1,5.17,3.17c1.18,2.51.74,5.46.07,8a46.83,46.83,0,0,1-3.54,8.71c-1,2.14-2.58,4.94-2.21,7.45.22,1.55,1.77,2,3.17,1.55,2.21-.59,4.06-2.51,5.54-4.21A35.48,35.48,0,0,0,178,40C179.06,38.09,182,39.79,181,41.71Z" transform="translate(-4.54)"/><path class="cls-1" d="M212.41,41.63a35.57,35.57,0,0,1-11,12c-2.73,1.7-5.68,3-8.49,4.43-1.77,4.5-3.54,8.93-5.39,13.36-1.4,3.4-3,7.23-5.9,9.45-3.54,2.66-8.86,1.25-9.74-3.17s1.7-8.78,4.5-12c3.17-3.84,7.9-6.79,12.25-9.23.52-.3,1-.52,1.55-.81,1.55-3.54,3.17-7.16,4.65-10.78,3.25-7.9,6.5-15.72,10.19-23.54a1.76,1.76,0,0,1,2.36-.59A1.85,1.85,0,0,1,208,23c-4.28,9.08-8,18.3-11.88,27.6a27.35,27.35,0,0,1-1.18,2.58,38.66,38.66,0,0,0,4.5-2.51,29.74,29.74,0,0,0,10-10.92C210.64,37.87,213.52,39.64,212.41,41.63ZM188,60.75a38,38,0,0,0-9.37,7.45,19.62,19.62,0,0,0-2.66,4.35c-.66,1.55-1.25,3.84-.07,5.31a2.37,2.37,0,0,0,3,.37,10.63,10.63,0,0,0,3-3.32,57.67,57.67,0,0,0,4-8.71C186.58,64.36,187.31,62.52,188,60.75Zm23.47-45.17a2.25,2.25,0,0,1-3.32-1.18,3.05,3.05,0,0,1,1-3.1,2.1,2.1,0,0,1,1.7-.59,2.13,2.13,0,0,1,1.84,1.62A3.24,3.24,0,0,1,211.45,15.58Z" transform="translate(-4.54)"/><path class="cls-1" d="M237.35,41.41c-3.62,6.86-10.55,14.32-19.12,13.06A9.31,9.31,0,0,1,211,49.31c-1.48-3.1-1.4-6.72-.81-10A31.6,31.6,0,0,1,214,29.53a23.76,23.76,0,0,1,6.64-7.9,8.86,8.86,0,0,1,8.93-1c3.39,1.77,3.62,5.9,2.36,9.08a14.89,14.89,0,0,1-18,8.41,21.6,21.6,0,0,0-.74,4.8c-.07,2.21.29,4.8,2,6.42a7.28,7.28,0,0,0,6.2,1.77c6-1,10.33-6.5,13-11.44C235.44,37.72,238.39,39.49,237.35,41.41Zm-22.29-6.49a11.13,11.13,0,0,0,9.37-1.33c2.36-1.48,4.58-4.06,4.87-7,.22-2.36-1.62-3.62-3.91-3.25s-4.43,2.36-6,4.21A30.37,30.37,0,0,0,215.07,34.92Z" transform="translate(-4.54)"/><path class="cls-1" d="M272.34,37.79c-2.21,5.17-4.8,10.92-9.3,14.47-3.25,2.51-8.12,3.25-11.15-.15a7.53,7.53,0,0,1-1.84-3.76,20.41,20.41,0,0,1-3.91,4.06c-3.17,2.44-8,3-10.92-.3-2.73-3-2.29-7.45-1.11-10.92a89.89,89.89,0,0,1,4.06-9.52c1.55-3.54,3.17-7.09,4.8-10.63a1.69,1.69,0,0,1,2.29-.59,1.78,1.78,0,0,1,.66,2.36c-1.62,3.54-3.25,7-4.8,10.55-1.18,2.66-2.51,5.39-3.47,7.9s-1.85,6-.22,8.27c2.14,2.88,5.83,1.11,7.82-.89,3.25-3.25,5.39-7.75,7.16-12,0-.07,4.5-10.55,6.79-15.65a1.67,1.67,0,0,1,1.11-.74,1.77,1.77,0,0,1,1.92,1,1.66,1.66,0,0,1-.07,1.55c-1.55,3.47-3,6.94-4.5,10.48-1.11,2.66-2.29,5.39-3.32,8.12-.89,2.36-1.92,6.13,0,8.27,2.21,2.66,5.68.89,7.6-1,3.25-3.25,5.39-7.75,7.16-12,0-.07,2.21-5.39,3-8,.44-1.85,1-4.21-.15-5.9s1.7-3.54,3-1.77c1.62,2.29,1.25,5.39.66,7.9A63.13,63.13,0,0,1,272.34,37.79Zm6.81,3.84c-3,5.17-10,16.68-17.12,11.07a1.74,1.74,0,0,1,0-2.44,1.9,1.9,0,0,1,2.44,0c2,1.55,4.43-.74,5.83-2.14a36.34,36.34,0,0,0,5.83-8.27C277.23,37.94,280.18,39.71,279.15,41.63Z" transform="translate(-4.54)"/><path class="cls-1" d="M303.44,41.41c-3.62,6.86-10.55,14.32-19.12,13.06a9.31,9.31,0,0,1-7.23-5.17c-1.48-3.1-1.4-6.72-.81-10a31.6,31.6,0,0,1,3.84-9.74,23.76,23.76,0,0,1,6.64-7.9,8.86,8.86,0,0,1,8.93-1c3.39,1.77,3.62,5.9,2.36,9.08a14.89,14.89,0,0,1-18,8.41,21.6,21.6,0,0,0-.74,4.8c-.07,2.21.29,4.8,2,6.42a7.28,7.28,0,0,0,6.2,1.77c6-1,10.33-6.5,13-11.44C301.52,37.72,304.47,39.49,303.44,41.41Zm-22.29-6.49a11.13,11.13,0,0,0,9.37-1.33c2.36-1.48,4.58-4.06,4.87-7,.22-2.36-1.62-3.62-3.91-3.25s-4.43,2.36-6,4.21A30.37,30.37,0,0,0,281.15,34.92Z" transform="translate(-4.54)"/><path class="cls-1" d="M318.69,6.43c-2.21,4.8-10.33,23.18-12.25,27.6-1.7,4.06-4,8.56-4.13,13.06-.07,1.33.07,2.88,1.33,3.76s2.8.52,4.06-.29c3.76-2.44,6.2-6.94,8.34-10.7a1.7,1.7,0,0,1,3,1.7,56.33,56.33,0,0,1-5.24,7.9,15.74,15.74,0,0,1-6.05,4.95c-4.28,1.62-8.27-1.48-8.78-5.83a16.72,16.72,0,0,1,1-7.09,77.57,77.57,0,0,1,3-7.82c4.06-9.74,8.34-19.41,12.77-28.93C316.69,2.74,319.65,4.43,318.69,6.43Z" transform="translate(-4.54)"/><path class="cls-1" d="M347.05,41.24c-2.8,5-6.64,10.78-12.18,13-3.62,1.48-8.34.37-9.74-3.69-1.25-3.84,1-8.19,2.8-11.51,1-1.7,2-3.4,2.88-5.09,1.18-2.21,2.51-4.95,1.4-7.45-.81-1.77-3-2.29-4.43-3.4a1,1,0,0,0-.29-.22,118,118,0,0,1-9.3,20.08,1.7,1.7,0,0,1-3-1.7,111.09,111.09,0,0,0,10.18-23.1c.07-.22.07-.37.15-.59.81-2,3.91-1.25,3.32,1a.23.23,0,0,1-.07.15c-.29,1.4,2,2.36,3.1,3a7.42,7.42,0,0,1,4,5.54c.66,4.5-2.14,8.64-4.28,12.4-1.48,2.66-3.76,6.13-3.4,9.23a3.14,3.14,0,0,0,2.51,2.66,6,6,0,0,0,4-.89c4.13-2.44,7.09-6.94,9.37-11.07C345.13,37.55,348.09,39.32,347.05,41.24Z" transform="translate(-4.54)"/><path class="cls-1" d="M376.33,41.26a34.65,34.65,0,0,1-10.92,12.18c-2.66,1.7-5.54,3.1-8.34,4.58-1.7,4.5-3.39,9-5.17,13.43-1.33,3.4-3,7.23-5.9,9.52-3.4,2.73-8.34,1.4-9.3-3.1s1.4-8.78,4.13-12.1c3.17-3.91,7.6-6.79,11.88-9.3.52-.29,1-.59,1.62-.89.37-1,.81-2.07,1.18-3.1-3.17,2.44-8,3-10.92-.3-2.66-3-2.21-7.31-1.11-10.85,1-3.25,2.58-6.35,3.91-9.45,1.55-3.62,3.1-7.16,4.72-10.78a1.76,1.76,0,0,1,2.36-.59,1.83,1.83,0,0,1,.59,2.36c-1.55,3.47-3.1,7-4.65,10.55-1.18,2.66-2.36,5.31-3.39,8-.89,2.36-1.85,6.13,0,8.27,2.21,2.66,5.68.89,7.6-1,3.32-3.25,5.39-7.75,7.16-12,.07-.07.07-.22.15-.29,2.07-5.17,4.21-10.33,6.5-15.43a1.76,1.76,0,0,1,2.36-.59,1.69,1.69,0,0,1,.59,2.36C367.33,32,363.71,41.26,360,50.56c-.37.89-.74,1.77-1,2.58,1.48-.74,3-1.62,4.43-2.51a31.21,31.21,0,0,0,10-11.07C374.41,37.65,377.36,39.34,376.33,41.26ZM352.27,60.75a32.75,32.75,0,0,0-9.15,7.68,16.6,16.6,0,0,0-2.58,4.43c-.66,1.55-1.11,4,0,5.46a1.77,1.77,0,0,0,1.7.74c1.48-.15,2.8-1.62,4.21-4a55.82,55.82,0,0,0,3.76-8.93C350.94,64.36,351.61,62.52,352.27,60.75Z" transform="translate(-4.54)"/><path class="cls-1" d="M200.58,73a9.21,9.21,0,0,1-1.3,1.84A4,4,0,0,1,197.74,76a1.38,1.38,0,0,1-1.42-.31,1.51,1.51,0,0,1-.31-1.42,9.42,9.42,0,0,1,.84-2.08,5.63,5.63,0,0,0,.58-1.81c.05-.41,0-1-.46-1.06a1.58,1.58,0,0,0-1.09.46,7.73,7.73,0,0,0-1.95,2.66s0,0,0,0c-.48,1.13-1,2.25-1.47,3.4a.39.39,0,0,1-.53.14.41.41,0,0,1-.15-.55l.56-1.3c1.52-3.51,3-7,4.64-10.51.21-.46.89-.05.68.41-.43.9-.84,1.81-1.25,2.73s-.7,1.6-1.06,2.41l.17-.14a2.22,2.22,0,0,1,1.35-.53,1.33,1.33,0,0,1,1.21.75,2.68,2.68,0,0,1,0,1.83,11,11,0,0,1-.82,2,3.14,3.14,0,0,0-.53,1.72.54.54,0,0,0,.75.36,3,3,0,0,0,1.28-1,9,9,0,0,0,1.13-1.6C200.15,72.2,200.83,72.59,200.58,73Z" transform="translate(-4.54)"/><path class="cls-1" d="M207.85,73a8.53,8.53,0,0,1-1.71,2.32,1.72,1.72,0,0,1-2,.44,1.14,1.14,0,0,1-.55-.92,3.12,3.12,0,0,1-1.54,1,1.72,1.72,0,0,1-2.17-1.35,6.07,6.07,0,0,1,1-4A4.34,4.34,0,0,1,203.89,68a1.91,1.91,0,0,1,1.54.6,1.23,1.23,0,0,1,.21.31l.31-.67c.22-.46.9-.07.68.39-.44,1-.85,1.91-1.26,2.88a16.15,16.15,0,0,0-.87,2.29c-.1.36-.32,1.16.12,1.31s1-.39,1.33-.7a10.37,10.37,0,0,0,1.23-1.83C207.4,72.18,208.09,72.59,207.85,73Zm-3.8-.43s.43-1,.61-1.42c.1-.27.22-.53.34-.8a.3.3,0,0,1,0-.17,1,1,0,0,0-.41-1.25,1.38,1.38,0,0,0-1.26,0,5.14,5.14,0,0,0-2.17,2.63,4,4,0,0,0-.43,3,1,1,0,0,0,1.45.38A4.6,4.6,0,0,0,204,72.61Z" transform="translate(-4.54)"/><path class="cls-1" d="M214.88,73a9.94,9.94,0,0,1-1.3,1.84A3.89,3.89,0,0,1,212,76a1.4,1.4,0,0,1-1.42-.31,1.56,1.56,0,0,1-.31-1.42,9.11,9.11,0,0,1,.85-2.06,6.38,6.38,0,0,0,.58-1.86c.05-.41,0-.94-.46-1a1.66,1.66,0,0,0-1.11.46,7.51,7.51,0,0,0-1.91,2.63c-.51,1.14-1,2.3-1.5,3.46a.41.41,0,0,1-.55.14.42.42,0,0,1-.14-.55c.14-.31.26-.61.39-.92.9-2.08,1.81-4.18,2.76-6.26.21-.46.89-.05.68.41-.07.15-.15.31-.22.48l.14-.1a2.18,2.18,0,0,1,1.35-.53,1.31,1.31,0,0,1,1.19.73,2.79,2.79,0,0,1,0,1.86,10.88,10.88,0,0,1-.82,2,3.28,3.28,0,0,0-.51,1.72c.05.36.41.46.73.36a2.86,2.86,0,0,0,1.28-1,8.21,8.21,0,0,0,1.13-1.6C214.43,72.2,215.12,72.59,214.88,73Z" transform="translate(-4.54)"/><path class="cls-1" d="M219.21,73.15c-.15.44-.82,2.37.32,2a2.83,2.83,0,0,0,1.16-1,11.14,11.14,0,0,0,1-1.54c.24-.44.92,0,.68.41a11.84,11.84,0,0,1-1.28,1.89,2.69,2.69,0,0,1-1.67,1,1.21,1.21,0,0,1-1.26-.78c0-.1-.05-.19-.07-.29a2.8,2.8,0,0,1-2,1.09,1.77,1.77,0,0,1-1.59-.85,3.25,3.25,0,0,1-.34-2.08,7.18,7.18,0,0,1,1.13-2.78,4.46,4.46,0,0,1,2.63-2.17,2.14,2.14,0,0,1,1.79.27,1.55,1.55,0,0,1,.5.61c.84-1.81,1.65-3.6,2.49-5.39.22-.46.9-.07.68.39-.56,1.21-1.11,2.42-1.67,3.63-.48,1-1,2.08-1.42,3.12C219.9,71.53,219.52,72.34,219.21,73.15Zm-.65-.55s0-.05,0-.09c.27-.67.58-1.33.89-2a1,1,0,0,1,.08-.21.24.24,0,0,1,0-.15,1.08,1.08,0,0,0-.75-1.33,2.11,2.11,0,0,0-1.37.27,4.87,4.87,0,0,0-1.79,2,5.62,5.62,0,0,0-.77,2.25,2,2,0,0,0,.32,1.45,1,1,0,0,0,1.13.32C217.44,74.86,218.16,73.58,218.57,72.61Z" transform="translate(-4.54)"/><path class="cls-1" d="M233.07,73a10,10,0,0,1-1.31,1.84A4,4,0,0,1,230.22,76a1.39,1.39,0,0,1-1.42-.31,1.51,1.51,0,0,1-.31-1.42,9.06,9.06,0,0,1,.84-2.06,5.7,5.7,0,0,0,.58-1.83c.05-.41,0-1-.46-1.06a1.61,1.61,0,0,0-1.09.46,7.56,7.56,0,0,0-1.93,2.64c0,.07-.05.12-.07.19-.44,1.09-.89,2.17-1.35,3.26a.39.39,0,0,1-.53.14.41.41,0,0,1-.15-.55c.46-1.06.89-2.12,1.31-3.19a5.65,5.65,0,0,0,.61-2.17c0-.56-.39-.9-.92-.73a3.51,3.51,0,0,0-1.52,1.26,8.65,8.65,0,0,0-1,1.47c-.55,1.25-1.09,2.51-1.64,3.77a.39.39,0,0,1-.53.14.41.41,0,0,1-.15-.55l.41-.92c.34-.78.68-1.59,1-2.39.05-.1.14-.31.19-.39q.74-1.74,1.54-3.48c.22-.46.9-.05.68.41-.07.14-.12.29-.19.44a2.2,2.2,0,0,1,1.4-.6A1.44,1.44,0,0,1,227,70a6.79,6.79,0,0,1,1-.9,2.22,2.22,0,0,1,1.35-.53,1.3,1.3,0,0,1,1.21.75,2.78,2.78,0,0,1,0,1.86,11.23,11.23,0,0,1-.82,2,3,3,0,0,0-.51,1.72c.05.36.41.46.73.36a3,3,0,0,0,1.28-1,9,9,0,0,0,1.13-1.6C232.62,72.2,233.31,72.59,233.07,73Z" transform="translate(-4.54)"/><path class="cls-1" d="M240.32,73a8.53,8.53,0,0,1-1.71,2.32,1.72,1.72,0,0,1-2,.44,1.14,1.14,0,0,1-.55-.92,3.12,3.12,0,0,1-1.54,1,1.72,1.72,0,0,1-2.17-1.35,6.07,6.07,0,0,1,1-4A4.34,4.34,0,0,1,236.37,68a1.91,1.91,0,0,1,1.54.6,1.23,1.23,0,0,1,.21.31l.31-.67c.22-.46.9-.07.68.39-.44,1-.85,1.91-1.26,2.88a16.15,16.15,0,0,0-.87,2.29c-.1.36-.32,1.16.12,1.31s1-.39,1.33-.7a10.37,10.37,0,0,0,1.23-1.83C239.88,72.18,240.56,72.59,240.32,73Zm-3.8-.43s.43-1,.61-1.42c.1-.27.22-.53.34-.8a.3.3,0,0,1,0-.17,1,1,0,0,0-.41-1.25,1.38,1.38,0,0,0-1.26,0,5.14,5.14,0,0,0-2.17,2.63,4,4,0,0,0-.43,3,1,1,0,0,0,1.45.38A4.6,4.6,0,0,0,236.52,72.61Z" transform="translate(-4.54)"/><path class="cls-1" d="M244.66,73.15c-.15.44-.82,2.37.32,2a2.83,2.83,0,0,0,1.16-1,11.14,11.14,0,0,0,1-1.54c.24-.44.92,0,.68.41a11.84,11.84,0,0,1-1.28,1.89,2.69,2.69,0,0,1-1.67,1,1.21,1.21,0,0,1-1.26-.78c0-.1-.05-.19-.07-.29a2.8,2.8,0,0,1-2,1.09,1.77,1.77,0,0,1-1.59-.85,3.25,3.25,0,0,1-.34-2.08,7.18,7.18,0,0,1,1.13-2.78,4.46,4.46,0,0,1,2.63-2.17,2.14,2.14,0,0,1,1.79.27,1.55,1.55,0,0,1,.5.61c.84-1.81,1.65-3.6,2.49-5.39.22-.46.9-.07.68.39-.56,1.21-1.11,2.42-1.67,3.63-.48,1-1,2.08-1.42,3.12C245.34,71.53,245,72.34,244.66,73.15Zm-.65-.55s0-.05,0-.09c.27-.67.58-1.33.89-2a1,1,0,0,1,.08-.21.24.24,0,0,1,0-.15,1.08,1.08,0,0,0-.75-1.33,2.11,2.11,0,0,0-1.37.27,4.87,4.87,0,0,0-1.79,2,5.62,5.62,0,0,0-.77,2.25,2,2,0,0,0,.32,1.45,1,1,0,0,0,1.13.32C242.88,74.86,243.6,73.58,244,72.61Z" transform="translate(-4.54)"/><path class="cls-1" d="M253.51,73c-.84,1.59-2.44,3.31-4.42,3a2.15,2.15,0,0,1-1.67-1.19,3.85,3.85,0,0,1-.19-2.32,7.3,7.3,0,0,1,.89-2.25,5.5,5.5,0,0,1,1.54-1.83,2,2,0,0,1,2.06-.22,1.61,1.61,0,0,1,.55,2.1,3.44,3.44,0,0,1-4.16,1.94,5,5,0,0,0-.17,1.11,2,2,0,0,0,.46,1.48,1.68,1.68,0,0,0,1.43.41,4.68,4.68,0,0,0,3-2.64C253.07,72.11,253.75,72.52,253.51,73Zm-5.15-1.5a2.57,2.57,0,0,0,2.17-.31,2.32,2.32,0,0,0,1.13-1.62c.05-.55-.37-.84-.9-.75a2.4,2.4,0,0,0-1.38,1A7.06,7.06,0,0,0,248.36,71.47Z" transform="translate(-4.54)"/><path class="cls-1" d="M260.8,73a8.2,8.2,0,0,1-1.71,2.32,1.72,1.72,0,0,1-2,.44,1.75,1.75,0,0,1-.46-2,18.23,18.23,0,0,1,1-2.64c.43-1,.84-2,1.3-2.92.22-.46.9-.07.68.39-.44,1-.87,1.91-1.28,2.88a21.76,21.76,0,0,0-.87,2.29c-.1.36-.32,1.16.14,1.31s1-.39,1.31-.7a8.78,8.78,0,0,0,1.23-1.83C260.36,72.18,261.06,72.59,260.8,73Zm-.55-6.11a.52.52,0,0,1-.79-.26.73.73,0,0,1,.21-.72.54.54,0,0,1,.41-.14.47.47,0,0,1,.43.36A.74.74,0,0,1,260.26,66.93Z" transform="translate(-4.54)"/><path class="cls-1" d="M267.85,73a9.94,9.94,0,0,1-1.3,1.84A3.89,3.89,0,0,1,265,76a1.4,1.4,0,0,1-1.42-.31,1.56,1.56,0,0,1-.31-1.42,9.11,9.11,0,0,1,.85-2.06,6.38,6.38,0,0,0,.58-1.86c.05-.41,0-.94-.46-1a1.66,1.66,0,0,0-1.11.46,7.51,7.51,0,0,0-1.91,2.63c-.51,1.14-1,2.3-1.5,3.46a.41.41,0,0,1-.55.14.42.42,0,0,1-.14-.55c.14-.31.26-.61.39-.92.9-2.08,1.81-4.18,2.76-6.26.21-.46.89-.05.68.41-.07.15-.15.31-.22.48l.14-.1a2.18,2.18,0,0,1,1.35-.53,1.31,1.31,0,0,1,1.19.73,2.79,2.79,0,0,1,0,1.86,10.88,10.88,0,0,1-.82,2,3.28,3.28,0,0,0-.51,1.72c.05.36.41.46.73.36a2.86,2.86,0,0,0,1.28-1,8.21,8.21,0,0,0,1.13-1.6C267.41,72.2,268.09,72.59,267.85,73Z" transform="translate(-4.54)"/><path class="cls-1" d="M282.42,74.13c-1.28,2.35-4.25,2.54-6.53,1.76a9.72,9.72,0,0,1-1.65-.77l-.41-.22a3.26,3.26,0,0,1-.53.65c-.73.67-2.27,1-2.93,0a1.35,1.35,0,0,1,.05-1.45,1.86,1.86,0,0,1,1.4-.72,3.28,3.28,0,0,1,1.71.41c.15-.29.27-.6.41-.89.73-1.74,1.31-3.53,2.22-5.2.77-1.4,1.89-2.9,3.62-3.05.51-.05.49.75,0,.78a2.86,2.86,0,0,0-.82.26c-1.33.68-2.1,2.3-2.71,3.63-.7,1.55-1.21,3.19-2,4.73l-.05.14a1,1,0,0,0,.14.09,8.44,8.44,0,0,0,3.24,1.18,4.57,4.57,0,0,0,3.1-.56,3.49,3.49,0,0,0,1.13-4.33,2.53,2.53,0,0,0-1.21-1.14,3.62,3.62,0,0,1-1.47.22.75.75,0,0,1-.73-.48.7.7,0,0,1,.14-.7,1.06,1.06,0,0,1,.9-.19,5.27,5.27,0,0,1,.87.17l.29.1a2.28,2.28,0,0,0,.26-.17,2.85,2.85,0,0,0,1-2.42,2.56,2.56,0,0,0-1.26-2,4.82,4.82,0,0,0-5.27.38,5,5,0,0,0-1.45,5.92c.26.44-.44.85-.68.39a4.8,4.8,0,0,1-.5-1.52,5.93,5.93,0,0,1,3.17-6.06c1.84-.82,4.44-.72,5.9.82a3.58,3.58,0,0,1-.41,5.08l.31.22A4.05,4.05,0,0,1,282.42,74.13Zm-9.3.38-.19-.1a2.1,2.1,0,0,0-1.16-.2c-.41.05-.89.32-.8.82s.72.39,1,.32A1.79,1.79,0,0,0,273.12,74.5Z" transform="translate(-4.54)"/><path class="cls-1" d="M291.52,73a8.53,8.53,0,0,1-1.71,2.32,1.72,1.72,0,0,1-2,.44,1.14,1.14,0,0,1-.55-.92,3.12,3.12,0,0,1-1.54,1,1.72,1.72,0,0,1-2.17-1.35,6.07,6.07,0,0,1,1-4A4.34,4.34,0,0,1,287.56,68a1.91,1.91,0,0,1,1.54.6,1.23,1.23,0,0,1,.21.31l.31-.67c.22-.46.9-.07.68.39-.44,1-.85,1.91-1.26,2.88a16.15,16.15,0,0,0-.87,2.29c-.1.36-.32,1.16.12,1.31s1-.39,1.33-.7a10.37,10.37,0,0,0,1.23-1.83C291.08,72.18,291.76,72.59,291.52,73Zm-3.8-.43s.43-1,.61-1.42c.1-.27.22-.53.34-.8a.3.3,0,0,1,0-.17,1,1,0,0,0-.41-1.25A1.38,1.38,0,0,0,287,69a5.14,5.14,0,0,0-2.17,2.63,4,4,0,0,0-.43,3,1,1,0,0,0,1.45.38A4.6,4.6,0,0,0,287.72,72.61Z" transform="translate(-4.54)"/><path class="cls-1" d="M295.16,64.88c-.51,1.11-2.39,5.36-2.83,6.38a9,9,0,0,0-1,3,.94.94,0,0,0,.31.87.8.8,0,0,0,.94-.07,6.86,6.86,0,0,0,1.93-2.47.39.39,0,0,1,.68.39A12.94,12.94,0,0,1,294,74.83a3.64,3.64,0,0,1-1.4,1.14,1.52,1.52,0,0,1-2-1.35,3.88,3.88,0,0,1,.24-1.64,18.18,18.18,0,0,1,.7-1.81c.94-2.25,1.93-4.49,3-6.69C294.7,64,295.38,64.42,295.16,64.88Z" transform="translate(-4.54)"/><path class="cls-1" d="M295.31,73.14a3.56,3.56,0,0,0-.24,1.4.76.76,0,0,0,.46.72.92.92,0,0,0,.85-.2,7.26,7.26,0,0,0,1.84-2.41.39.39,0,0,1,.68.39,13.33,13.33,0,0,1-1.14,1.74,3.68,3.68,0,0,1-1.31,1.14,1.49,1.49,0,0,1-2.13-1,6,6,0,0,1,.75-3.31c.46-1.11.92-2.2,1.42-3.31h-.8a.39.39,0,0,1,0-.78h1.14L298,65a.39.39,0,0,1,.68.39c-.32.7-.63,1.38-.94,2.08h1.13a.39.39,0,0,1,0,.78h-1.48l-.21.46c-.43,1-.85,2-1.26,3A15.18,15.18,0,0,0,295.31,73.14Z" transform="translate(-4.54)"/><path class="cls-1" d="M302.12,73a8.2,8.2,0,0,1-1.71,2.32,1.72,1.72,0,0,1-2,.44,1.75,1.75,0,0,1-.46-2,18.23,18.23,0,0,1,1-2.64c.43-1,.84-2,1.3-2.92.22-.46.9-.07.68.39-.44,1-.87,1.91-1.28,2.88a21.76,21.76,0,0,0-.87,2.29c-.1.36-.32,1.16.14,1.31s1-.39,1.31-.7a8.78,8.78,0,0,0,1.23-1.83C301.67,72.18,302.37,72.59,302.12,73Zm-.55-6.11a.52.52,0,0,1-.79-.26A.73.73,0,0,1,301,66a.54.54,0,0,1,.41-.14.47.47,0,0,1,.43.36A.74.74,0,0,1,301.57,66.93Z" transform="translate(-4.54)"/><path class="cls-1" d="M312.71,73a10,10,0,0,1-1.31,1.84A4,4,0,0,1,309.87,76a1.39,1.39,0,0,1-1.42-.31,1.51,1.51,0,0,1-.31-1.42A9.06,9.06,0,0,1,309,72.2a5.7,5.7,0,0,0,.58-1.83c.05-.41,0-1-.46-1.06a1.61,1.61,0,0,0-1.09.46,7.56,7.56,0,0,0-1.93,2.64c0,.07-.05.12-.07.19-.44,1.09-.89,2.17-1.35,3.26a.39.39,0,0,1-.53.14.41.41,0,0,1-.15-.55c.46-1.06.89-2.12,1.31-3.19a5.65,5.65,0,0,0,.61-2.17c0-.56-.39-.9-.92-.73a3.51,3.51,0,0,0-1.52,1.26,8.65,8.65,0,0,0-1,1.47c-.55,1.25-1.09,2.51-1.64,3.77a.39.39,0,0,1-.53.14.41.41,0,0,1-.15-.55l.41-.92c.34-.78.68-1.59,1-2.39.05-.1.14-.31.19-.39q.74-1.74,1.54-3.48c.22-.46.9-.05.68.41-.07.14-.12.29-.19.44a2.2,2.2,0,0,1,1.4-.6A1.45,1.45,0,0,1,306.69,70a6.73,6.73,0,0,1,1-.9,2.22,2.22,0,0,1,1.35-.53,1.3,1.3,0,0,1,1.21.75,2.78,2.78,0,0,1,0,1.86,11.23,11.23,0,0,1-.82,2,3,3,0,0,0-.51,1.72c.05.36.41.46.73.36a3,3,0,0,0,1.28-1,9,9,0,0,0,1.13-1.6C312.27,72.2,313,72.59,312.71,73Z" transform="translate(-4.54)"/><path class="cls-1" d="M316.68,73.51c-.61,1.21-1.77,2.93-3.36,2.61l-.12,0c-1.66-.51-1.37-2.52-.92-3.82a7.65,7.65,0,0,1,2.49-3.87,1.8,1.8,0,0,1,2.71.53,3.21,3.21,0,0,1,.12,2A10.1,10.1,0,0,1,316.68,73.51Zm-.41-1a7.87,7.87,0,0,0,.61-2.12c.07-.78-.12-1.33-.56-1.55a1.64,1.64,0,0,0-1.48.51,5.45,5.45,0,0,0-1.09,1.54,10.93,10.93,0,0,0-.82,1.94c-.24.8-.53,2.22.55,2.51a1.7,1.7,0,0,0,1.5-.7A7.6,7.6,0,0,0,316.27,72.52Zm3.8.49c-.67,1.19-2.29,3.86-3.94,2.56a.38.38,0,0,1,0-.55.4.4,0,0,1,.56,0c.46.36,1-.17,1.35-.51a8.38,8.38,0,0,0,1.35-1.91A.4.4,0,0,1,320.07,73Z" transform="translate(-4.54)"/><path class="cls-1" d="M326.62,72.93a6.41,6.41,0,0,1-2.81,3,1.66,1.66,0,0,1-2.25-.85,3.67,3.67,0,0,1,.65-2.66c.22-.39.46-.78.67-1.18a2,2,0,0,0,.32-1.72c-.19-.41-.68-.53-1-.78l-.07-.05A27.25,27.25,0,0,1,320,73.33a.39.39,0,0,1-.68-.39,25.69,25.69,0,0,0,2.35-5.34c0-.05,0-.08,0-.14a.4.4,0,0,1,.77.22.05.05,0,0,1,0,0c-.07.32.46.55.72.68a1.72,1.72,0,0,1,.92,1.28,4.71,4.71,0,0,1-1,2.87,4,4,0,0,0-.79,2.13.73.73,0,0,0,.58.61,1.39,1.39,0,0,0,.92-.2,6.58,6.58,0,0,0,2.17-2.56C326.18,72.08,326.86,72.49,326.62,72.93Z" transform="translate(-4.54)"/><path class="cls-1" d="M332.38,73c-.84,1.59-2.44,3.31-4.42,3a2.15,2.15,0,0,1-1.67-1.19,3.85,3.85,0,0,1-.19-2.32,7.3,7.3,0,0,1,.89-2.25,5.5,5.5,0,0,1,1.54-1.83,2,2,0,0,1,2.06-.22,1.61,1.61,0,0,1,.55,2.1A3.44,3.44,0,0,1,327,72.22a5,5,0,0,0-.17,1.11,2,2,0,0,0,.46,1.48,1.68,1.68,0,0,0,1.43.41,4.68,4.68,0,0,0,3-2.64C331.93,72.11,332.62,72.52,332.38,73Zm-5.15-1.5a2.57,2.57,0,0,0,2.17-.31,2.32,2.32,0,0,0,1.13-1.62c.05-.55-.37-.84-.9-.75a2.4,2.4,0,0,0-1.38,1A7.06,7.06,0,0,0,327.22,71.47Z" transform="translate(-4.54)"/></svg>